<svg xmlns="http://www.w3.org/2000/svg" xmlns:xlink="http://www.w3.org/1999/xlink" width="32" height="32">
<defs><linearGradient id="a"><stop offset="0" stop-color="#ff1679"/><stop offset="1" stop-color="#ff770b"/></linearGradient>
<linearGradient id="b" x1="992.183" x2="1019.298" y1="516.081" y2="545.959" gradientTransform="translate(-1015.137 491.682) scale(1.02524)" gradientUnits="userSpaceOnUse" xlink:href="#a"/></defs><g transform="translate(0 -1020.362)"><rect width="32" height="32" y="1020.362" fill="url(#b)" rx="6.763" ry="6.763"/><path style="text-indent:0;text-align:start;line-height:normal;text-transform:none;block-progression:tb" fill="#fff" fill-rule="evenodd" d="M13.459 1033.363a.5.5 0 0 0 .05 1h5a.5.5 0 1 0 0-1h-5a.5.5 0 0 0-.05 0zm0 3a.5.5 0 0 0 .05 1h5a.5.5 0 1 0 0-1h-5a.5.5 0 0 0-.05 0zm0 3a.5.5 0 0 0 .05 1h5a.5.5 0 1 0 0-1h-5a.5.5 0 0 0-.05 0z" color="#000" font-family="sans-serif" font-weight="400" overflow="visible"/></g></svg>